<?xml version="1.0" encoding="UTF-8" standalone="no"?>
<!-- Created with Inkscape (http://www.inkscape.org/) -->
<svg
   xmlns:svg="http://www.w3.org/2000/svg"
   xmlns="http://www.w3.org/2000/svg"
   version="1.0"
   width="140"
   height="140"
   id="svg3425">
  <defs
     id="defs3427" />
  <path
     d="M 182,141 C 182,163.64367 163.64367,182 141,182 C 118.35633,182 100,163.64367 100,141 C 100,118.35633 118.35633,100 141,100 C 163.64367,100 182,118.35633 182,141 L 182,141 z"
     transform="translate(-71,-71)"
     id="path3546"
     style="fill:#81c3e2" />
  <path
     d="M 67.84375,26.875 C 67.35443,27.370479 66.993904,28.339244 67,29.03125 C 67.006096,29.723256 67.38568,30.673075 67.875,31.15625 C 68.36432,31.639425 69.312342,32.004346 70,32 C 70.687658,31.995654 71.639989,31.618633 72.125,31.125 C 72.610011,30.631367 72.974846,29.660756 72.96875,28.96875 C 72.962654,28.276744 72.578746,27.325107 72.09375,26.84375 C 71.608754,26.362393 70.687658,25.999169 70,26 C 69.312342,26.000831 68.33307,26.379521 67.84375,26.875 z M 52.15625,30 C 51.666938,30.491821 51.275121,31.460697 51.28125,32.15625 C 51.287379,32.851803 51.698209,33.801667 52.1875,34.28125 C 52.676791,34.760833 53.593592,35.125831 54.28125,35.125 C 54.968908,35.124169 55.94818,34.745479 56.4375,34.25 C 56.92682,33.754521 57.287346,32.785756 57.28125,32.09375 C 57.275154,31.401744 56.89557,30.451925 56.40625,29.96875 C 55.91693,29.485575 54.968908,29.120654 54.28125,29.125 C 53.593592,29.129346 52.645562,29.508179 52.15625,30 z M 83.53125,30 C 83.043769,30.491163 82.678831,31.435571 82.6875,32.125 C 82.696169,32.814429 83.106269,33.766048 83.59375,34.25 C 84.081231,34.733952 85.000593,35.127495 85.6875,35.125 C 86.374407,35.122505 87.326785,34.710579 87.8125,34.21875 C 88.298215,33.726921 88.691823,32.784977 88.6875,32.09375 C 88.683177,31.402523 88.270541,30.448333 87.78125,29.96875 C 87.291959,29.489167 86.375158,29.124169 85.6875,29.125 C 84.999842,29.125831 84.018731,29.508837 83.53125,30 z M 96.84375,38.875 C 96.354438,39.366821 95.962621,40.335697 95.96875,41.03125 C 95.974879,41.726803 96.385709,42.676667 96.875,43.15625 C 97.364291,43.635833 98.283653,44.006864 98.96875,44 C 99.653847,43.993136 100.60804,43.585579 101.09375,43.09375 C 101.57946,42.601921 101.97307,41.659977 101.96875,40.96875 C 101.96443,40.277523 101.55179,39.323333 101.0625,38.84375 C 100.57321,38.364167 99.652065,37.997427 98.96875,38 C 98.285435,38.002573 97.333062,38.383179 96.84375,38.875 z M 38.875,38.90625 C 38.3875,39.39375 37.995677,40.340023 38,41.03125 C 38.004323,41.722477 38.418769,42.672298 38.90625,43.15625 C 39.393731,43.640202 40.313093,44.033745 41,44.03125 C 41.686907,44.028755 42.639285,43.616829 43.125,43.125 C 43.610715,42.633171 44.004323,41.691227 44,41 C 43.995677,40.308773 43.583041,39.354583 43.09375,38.875 C 42.604459,38.395417 41.683315,38.028677 41,38.03125 C 40.316685,38.033823 39.3625,38.41875 38.875,38.90625 z M 105.75,52.1875 C 105.26429,52.679329 104.87068,53.621273 104.875,54.3125 C 104.87932,55.003727 105.29196,55.957917 105.78125,56.4375 C 106.27054,56.917083 107.19169,57.283823 107.875,57.28125 C 108.55831,57.278677 109.5125,56.89375 110,56.40625 C 110.4875,55.91875 110.87932,54.972477 110.875,54.28125 C 110.87068,53.590023 110.45623,52.640202 109.96875,52.15625 C 109.48127,51.672298 108.56191,51.278755 107.875,51.28125 C 107.18809,51.283745 106.23571,51.695671 105.75,52.1875 z M 29.96875,52.21875 C 29.483066,52.714199 29.120654,53.656092 29.125,54.34375 C 29.129346,55.031408 29.51068,55.985575 30,56.46875 C 30.48932,56.951925 31.437342,57.316846 32.125,57.3125 C 32.812658,57.308154 33.760688,56.929321 34.25,56.4375 C 34.739312,55.945679 35.132948,54.972477 35.125,54.28125 C 35.117052,53.590023 34.704465,52.667114 34.21875,52.1875 C 33.733035,51.707886 32.816227,51.311801 32.125,51.3125 C 31.433773,51.313199 30.454434,51.723301 29.96875,52.21875 z M 108.875,67.875 C 108.38929,68.366829 108.06781,69.65724 108,70 C 107.93219,70.34276 107.92964,69.691554 108,70.03125 C 108.07036,70.370946 108.83589,71.785304 108.90625,72.125 C 108.97661,72.464696 108.71416,71.871734 108.90625,72.15625 C 109.09834,72.440766 110.31669,73.002573 111,73 C 111.68331,72.997427 112.93058,72.415314 113.125,72.125 C 113.31942,71.834686 113.05719,72.43651 113.125,72.09375 C 113.19281,71.75099 114.00432,70.659977 114,69.96875 C 113.99568,69.277523 113.58123,68.327702 113.09375,67.84375 C 112.60627,67.359798 111.68691,66.966255 111,66.96875 C 110.31309,66.971245 109.36071,67.383171 108.875,67.875 z M 26.875,67.90625 C 26.389285,68.398079 25.995677,69.340023 26,70.03125 C 26.004323,70.722477 26.416959,71.676667 26.90625,72.15625 C 27.395541,72.635833 28.316685,73.002573 29,73 C 29.683315,72.997427 30.6375,72.6125 31.125,72.125 C 31.6125,71.6375 32.004323,70.691227 32,70 C 31.995677,69.308773 31.581231,68.358952 31.09375,67.875 C 30.606269,67.391048 29.686907,66.997505 29,67 C 28.313093,67.002495 27.360715,67.414421 26.875,67.90625 z M 30,83.59375 C 29.514285,84.085579 29.120677,85.027523 29.125,85.71875 C 29.129323,86.409977 29.541959,87.364167 30.03125,87.84375 C 30.520541,88.323333 31.441685,88.690073 32.125,88.6875 C 32.808315,88.684927 33.7625,88.3 34.25,87.8125 C 34.7375,87.325 35.129323,86.378727 35.125,85.6875 C 35.120677,84.996273 34.706231,84.046452 34.21875,83.5625 C 33.731269,83.078548 32.811907,82.685005 32.125,82.6875 C 31.438093,82.689995 30.485715,83.101921 30,83.59375 z M 105.75,83.5625 C 105.26069,84.054321 104.86887,85.023197 104.875,85.71875 C 104.88113,86.414303 105.29196,87.364167 105.78125,87.84375 C 106.27054,88.323333 107.19169,88.690073 107.875,88.6875 C 108.55831,88.684927 109.51069,88.304321 110,87.8125 C 110.48931,87.320679 110.88113,86.351803 110.875,85.65625 C 110.86887,84.960697 110.45804,84.010833 109.96875,83.53125 C 109.47946,83.051667 108.55831,82.684927 107.875,82.6875 C 107.19169,82.690073 106.23931,83.070679 105.75,83.5625 z M 38.875,96.875 C 38.385688,97.366821 37.993871,98.335697 38,99.03125 C 38.006129,99.726803 38.416959,100.67667 38.90625,101.15625 C 39.395541,101.63583 40.312342,102.00083 41,102 C 41.687658,101.99917 42.66693,101.62048 43.15625,101.125 C 43.64557,100.62952 44.006096,99.660756 44,98.96875 C 43.993904,98.276744 43.61432,97.326925 43.125,96.84375 C 42.63568,96.360575 41.687658,95.995654 41,96 C 40.312342,96.004346 39.364312,96.383179 38.875,96.875 z M 96.875,96.875 C 96.3875,97.3625 95.995677,98.308773 96,99 C 96.004323,99.691227 96.418769,100.64105 96.90625,101.125 C 97.393731,101.60895 98.313093,102.0025 99,102 C 99.686907,101.9975 100.63929,101.58558 101.125,101.09375 C 101.61071,100.60192 102.00432,99.659977 102,98.96875 C 101.99568,98.277523 101.58304,97.323333 101.09375,96.84375 C 100.60446,96.364167 99.683315,95.997427 99,96 C 98.316685,96.002573 97.3625,96.3875 96.875,96.875 z M 52.1875,105.78125 C 51.701785,106.27308 51.308177,107.21502 51.3125,107.90625 C 51.316823,108.59748 51.729459,109.55167 52.21875,110.03125 C 52.708041,110.51083 53.629185,110.87757 54.3125,110.875 C 54.995815,110.87243 55.95,110.4875 56.4375,110 C 56.925,109.5125 57.316823,108.56623 57.3125,107.875 C 57.308177,107.18377 56.893731,106.23395 56.40625,105.75 C 55.918769,105.26605 54.999407,104.8725 54.3125,104.875 C 53.625593,104.8775 52.673215,105.28942 52.1875,105.78125 z M 83.5625,105.78125 C 83.076785,106.27308 82.683177,107.21502 82.6875,107.90625 C 82.691823,108.59748 83.104459,109.55167 83.59375,110.03125 C 84.083041,110.51083 85.004185,110.87757 85.6875,110.875 C 86.370815,110.87243 87.323188,110.49182 87.8125,110 C 88.301812,109.50818 88.695448,108.53498 88.6875,107.84375 C 88.679552,107.15252 88.266965,106.22961 87.78125,105.75 C 87.295535,105.27039 86.374407,104.8725 85.6875,104.875 C 85.000593,104.8775 84.048215,105.28942 83.5625,105.78125 z M 67.875,108.875 C 67.385688,109.36682 66.993871,110.3357 67,111.03125 C 67.006129,111.7268 67.416959,112.67667 67.90625,113.15625 C 68.395541,113.63583 69.316685,114.00257 70,114 C 70.683315,113.99743 71.635688,113.61682 72.125,113.125 C 72.614312,112.63318 73.006129,111.6643 73,110.96875 C 72.993871,110.2732 72.583041,109.32333 72.09375,108.84375 C 71.604459,108.36417 70.683315,107.99743 70,108 C 69.316685,108.00257 68.364312,108.38318 67.875,108.875 z"
     id="path2381"
     style="fill:#000000;fill-opacity:1;fill-rule:evenodd;stroke:none;stroke-width:6;stroke-linecap:round;stroke-linejoin:round;stroke-dasharray:0, 16.1;stroke-dashoffset:0;stroke-opacity:1" />
  <path
     d="M 40,70 L 100,70 M 70,40 L 70,100"
     id="path3548"
     style="fill:none;stroke:#000000;stroke-width:6;stroke-linecap:round;stroke-linejoin:round" />
</svg>
