<?xml version="1.0" standalone="no"?>
<!DOCTYPE svg PUBLIC "-//W3C//DTD SVG 20010904//EN"
 "http://www.w3.org/TR/2001/REC-SVG-20010904/DTD/svg10.dtd">
<svg version="1.0" xmlns="http://www.w3.org/2000/svg"
 width="2800.000000pt" height="2800.000000pt" viewBox="0 0 2800.000000 2800.000000"
 preserveAspectRatio="xMidYMid meet">
<metadata>
Created by potrace 1.11, written by Peter Selinger 2001-2013
</metadata>
<g transform="translate(0.000000,2800.000000) scale(0.100000,-0.100000)"
fill="#000000" stroke="none">
<path d="M15725 27070 c-242 -43 -382 -211 -520 -625 -43 -127 -94 -325 -211
-813 -32 -133 -61 -237 -65 -230 -12 23 -276 770 -324 918 -26 80 -78 267
-115 415 -65 257 -70 270 -92 269 -13 0 -70 -8 -128 -18 -58 -10 -175 -29
-260 -43 -200 -33 -307 -64 -398 -116 -199 -113 -317 -289 -341 -513 -17 -152
13 -284 76 -334 53 -42 137 -34 169 16 26 38 19 79 -24 163 -49 93 -64 170
-51 255 29 180 169 313 401 380 82 23 327 70 333 64 7 -7 -117 -607 -170 -827
-172 -703 -305 -1010 -475 -1096 -101 -51 -171 -43 -270 33 -126 95 -154 106
-210 77 -37 -19 -50 -43 -50 -93 0 -104 126 -186 305 -199 181 -12 344 65 460
218 52 69 139 243 175 349 47 141 255 959 303 1195 8 39 17 63 21 55 3 -8 59
-184 125 -390 147 -459 216 -662 291 -847 76 -187 234 -543 241 -543 3 0 36
134 73 298 205 900 335 1355 458 1594 98 192 196 235 370 162 80 -33 128 -35
165 -8 63 47 67 119 9 177 -50 51 -167 75 -271 57z"/>
<path d="M14357 24170 c-3 -8 -64 -426 -135 -928 -72 -502 -132 -915 -135
-918 -2 -3 -82 -9 -178 -14 -1215 -69 -2321 -359 -3384 -885 -753 -373 -1497
-891 -2085 -1450 -63 -60 -128 -121 -143 -135 l-28 -24 -654 654 c-648 648
-654 654 -675 635 -11 -10 -20 -23 -20 -29 0 -6 293 -304 651 -662 l651 -651
-119 -124 c-716 -751 -1298 -1635 -1701 -2584 -226 -532 -409 -1123 -501
-1615 -48 -256 -49 -248 7 -145 26 50 60 108 74 130 16 25 43 109 72 225 102
397 189 680 307 997 74 200 242 599 257 615 6 6 315 -131 330 -147 3 -2 -21
-62 -53 -132 -66 -148 -154 -365 -219 -545 -52 -145 -126 -385 -126 -410 0
-14 11 -10 59 20 l59 37 62 175 c137 387 275 712 439 1038 1028 2037 2880
3551 5071 4147 529 143 1031 227 1588 266 90 6 166 8 169 5 4 -3 -38 -319 -93
-700 -54 -382 -100 -693 -102 -691 -4 3 -17 124 -57 525 -14 140 -27 274 -30
296 -6 40 -5 42 26 48 43 8 106 75 115 121 14 77 -22 157 -86 190 -37 19 -123
19 -160 0 -69 -36 -106 -131 -81 -208 16 -47 70 -94 125 -108 l43 -11 7 -71
c6 -74 51 -685 64 -883 7 -102 4 -136 -54 -539 -35 -236 -63 -431 -63 -431 -1
-2 -204 -29 -220 -29 -11 0 -36 113 -102 460 -48 253 -129 674 -179 935 -51
271 -86 476 -81 478 27 9 78 51 98 81 16 24 23 49 23 83 0 58 -17 94 -63 135
-85 75 -221 38 -262 -72 -40 -104 37 -225 144 -225 18 0 34 -6 36 -12 13 -35
304 -1873 298 -1878 -5 -4 -51 -15 -103 -25 -52 -10 -140 -28 -194 -42 -55
-13 -103 -20 -107 -16 -3 5 -59 193 -122 418 -64 226 -179 635 -257 909 -132
467 -140 500 -123 509 10 6 32 25 50 42 116 116 11 308 -155 281 -44 -7 -79
-31 -110 -77 -32 -46 -28 -138 7 -188 28 -39 91 -70 141 -71 l36 0 25 -102
c14 -57 119 -472 233 -922 114 -450 203 -822 199 -826 -4 -4 -37 -15 -73 -25
-36 -9 -123 -37 -193 -60 -87 -29 -130 -39 -132 -32 -4 11 -631 1664 -659
1736 -13 34 -12 35 30 75 75 73 80 172 10 242 -107 107 -288 35 -288 -115 0
-102 71 -171 177 -171 l43 0 31 -86 c17 -47 76 -215 131 -373 54 -157 180
-520 279 -805 100 -286 181 -525 181 -530 0 -6 -24 -20 -52 -30 -29 -10 -115
-45 -192 -78 -76 -32 -140 -57 -142 -56 -3 3 -100 203 -457 943 -51 104 -156
320 -233 480 l-142 290 24 18 c40 31 66 84 66 136 0 202 -275 235 -333 41 -32
-108 69 -218 192 -208 l43 3 148 -330 c366 -812 621 -1381 625 -1395 3 -11
-15 -25 -59 -46 -35 -16 -118 -59 -185 -94 -68 -35 -125 -62 -127 -59 -3 2
-223 370 -490 818 l-485 814 34 39 c62 73 56 168 -15 232 -46 41 -74 50 -136
43 -54 -6 -105 -43 -129 -93 -23 -50 -17 -129 15 -174 40 -56 131 -84 193 -61
25 10 30 1 255 -402 597 -1068 703 -1259 700 -1261 -105 -63 -152 -92 -244
-151 l-111 -72 -549 760 c-302 418 -552 766 -557 773 -4 8 5 32 23 60 39 62
40 120 5 180 -28 48 -91 84 -147 84 -85 0 -168 -84 -168 -170 0 -94 88 -176
180 -167 25 2 54 8 66 11 23 8 -26 76 514 -719 194 -286 404 -595 467 -687
l113 -166 -66 -47 c-37 -26 -111 -83 -165 -126 -54 -44 -102 -79 -106 -78 -5
0 -288 325 -630 722 -550 638 -620 723 -608 737 54 60 55 157 2 217 -76 86
-204 82 -269 -9 -33 -48 -33 -149 1 -197 45 -62 135 -86 208 -56 34 14 38 14
53 -2 10 -10 275 -335 590 -723 315 -388 579 -713 587 -722 14 -15 11 -20 -23
-50 -21 -18 -67 -59 -101 -90 l-62 -58 -468 352 c-257 193 -481 362 -498 375
-16 14 -138 132 -272 262 l-243 238 20 38 c67 131 -51 282 -190 245 -146 -39
-173 -241 -40 -311 47 -25 125 -25 167 1 l32 19 255 -262 255 -262 355 -474
c196 -261 356 -479 356 -484 0 -6 -24 -35 -53 -66 -28 -31 -67 -73 -84 -93
-18 -21 -35 -38 -37 -38 -3 0 -117 91 -253 202 -137 111 -441 360 -678 552
-236 192 -457 373 -491 401 l-60 51 19 43 c27 61 17 120 -29 171 -112 124
-306 41 -292 -125 5 -65 37 -111 92 -136 64 -29 127 -22 187 22 14 10 89 -50
495 -401 264 -228 544 -470 624 -539 157 -136 294 -254 325 -283 19 -17 19
-18 -7 -45 -14 -16 -72 -89 -128 -163 -56 -74 -107 -134 -113 -132 -9 3 -1496
1009 -1553 1051 -19 14 -19 17 -6 56 40 110 -61 236 -178 221 -94 -13 -156
-88 -148 -182 5 -61 26 -96 78 -131 56 -39 153 -27 211 24 15 13 95 -42 775
-533 418 -301 765 -553 773 -560 12 -11 2 -32 -66 -136 -44 -68 -92 -144 -108
-170 -15 -27 -30 -50 -35 -53 -7 -5 -1633 896 -1657 919 -10 9 -10 21 -2 49
19 71 -27 164 -98 193 -73 31 -164 3 -210 -65 -27 -41 -31 -126 -8 -171 49
-95 182 -118 263 -46 l37 33 809 -482 c444 -266 813 -488 818 -493 6 -6 -12
-50 -55 -128 -36 -66 -80 -149 -98 -186 l-33 -67 -35 19 c-20 9 -218 99 -441
198 -223 99 -506 226 -630 282 -124 56 -316 143 -428 193 l-204 91 6 41 c16
102 -64 195 -167 195 -96 0 -168 -70 -169 -164 -3 -154 179 -229 288 -119 l36
35 119 -56 c167 -79 968 -466 1311 -634 l287 -140 -53 -124 c-29 -67 -65 -155
-80 -195 l-27 -71 -190 63 c-104 36 -211 71 -238 79 -50 15 -50 14 -42 -7 10
-27 34 -39 251 -123 96 -37 179 -71 184 -75 4 -4 -4 -45 -20 -91 -15 -45 -42
-135 -60 -198 l-32 -115 -32 3 -31 2 29 -42 c16 -24 43 -65 60 -92 20 -30 33
-44 36 -35 3 8 26 84 51 169 210 706 502 1290 921 1840 127 168 334 410 349
410 7 0 135 -172 135 -182 0 -4 -39 -52 -86 -106 -495 -563 -886 -1284 -1089
-2007 -41 -147 -85 -343 -85 -379 0 -25 54 -106 70 -106 4 0 24 71 45 158 204
861 578 1607 1125 2245 l93 108 35 -41 c24 -29 38 -38 45 -31 7 7 7 18 0 34
-6 13 -201 278 -433 588 -233 310 -427 571 -433 579 -6 8 221 -216 504 -498
283 -281 519 -512 525 -512 6 0 22 10 36 23 13 12 54 49 92 81 l67 59 -42 37
-42 36 119 100 c621 523 1328 889 2087 1078 200 51 474 103 483 93 4 -4 -72
-566 -169 -1250 -98 -683 -180 -1272 -183 -1309 -6 -64 -6 -68 14 -68 37 0
-27 -425 607 4020 278 1950 507 3550 510 3555 2 6 4 -2004 4 -4466 l1 -4477
-77 -7 c-127 -11 -253 -43 -345 -85 -26 -12 -28 -18 -28 -72 0 -32 2 -58 4
-58 2 0 34 12 72 26 121 45 222 65 370 71 l141 6 59 80 c207 281 580 469 977
494 l97 6 0 41 c0 23 -14 136 -30 251 -16 116 -26 213 -22 216 16 15 3378
2535 3392 2543 8 4 -678 -685 -1525 -1532 -846 -848 -1537 -1543 -1535 -1545
3 -2 40 -16 83 -31 149 -54 255 -145 319 -274 l33 -67 65 -12 c36 -6 111 -17
168 -24 99 -12 104 -11 124 8 l20 20 -34 6 c-18 3 -70 12 -115 18 -46 7 -83
16 -83 20 0 4 26 40 57 80 31 41 407 542 836 1114 429 572 786 1047 794 1055
17 18 30 4 207 -215 368 -457 628 -917 840 -1490 37 -99 71 -192 77 -206 8
-20 20 -28 49 -33 21 -3 45 -9 54 -12 13 -5 12 4 -5 68 -113 412 -384 979
-667 1393 -131 192 -250 346 -426 549 l-48 56 67 90 c37 49 70 90 74 90 16 0
234 -259 372 -441 414 -549 706 -1147 921 -1888 27 -96 65 -204 83 -240 59
-118 104 -275 121 -427 4 -32 11 -66 15 -75 10 -19 41 -25 347 -70 252 -37
345 -41 350 -17 2 9 -5 19 -15 22 -28 9 -318 53 -498 77 -88 11 -160 21 -161
22 -5 9 -31 233 -28 239 3 4 15 8 27 8 24 0 468 83 667 125 69 14 137 29 152
32 33 7 47 33 17 33 -29 0 -451 -64 -679 -104 -107 -18 -196 -32 -198 -31 -2
1 -16 69 -33 151 -16 82 -36 174 -44 204 -8 30 -13 56 -11 58 2 2 192 56 422
122 231 65 643 182 918 259 274 78 499 140 500 139 35 -84 116 -130 201 -114
50 10 110 70 125 126 30 113 -66 221 -186 207 -83 -9 -144 -77 -144 -160 l0
-44 -287 -73 c-159 -40 -576 -145 -928 -234 l-640 -162 -13 45 c-7 25 -35 116
-62 201 -27 85 -47 156 -45 158 2 3 403 156 891 342 l888 337 20 -31 c25 -37
98 -76 141 -76 45 1 109 34 136 71 35 50 39 142 7 189 -50 74 -145 103 -216
66 -63 -33 -105 -108 -100 -175 l3 -33 -900 -313 c-495 -173 -900 -313 -901
-312 0 1 -27 67 -59 147 -32 80 -68 166 -81 192 l-24 48 47 24 c27 13 309 150
628 304 319 154 683 330 809 391 126 61 231 111 234 111 3 0 20 -16 39 -35 82
-85 215 -63 271 45 28 55 24 116 -12 171 -46 69 -159 92 -227 46 -58 -39 -81
-83 -78 -152 l3 -60 -870 -391 -869 -390 -96 185 c-53 102 -94 189 -90 193 3
4 371 225 818 491 l812 485 22 -24 c69 -73 188 -71 252 5 121 144 -45 350
-208 258 -22 -12 -50 -38 -63 -57 -21 -31 -23 -44 -20 -105 l5 -70 -824 -460
c-453 -253 -827 -461 -832 -463 -4 -1 -25 26 -46 60 -21 35 -72 114 -112 177
-41 63 -71 117 -66 121 7 7 1355 980 1496 1080 l47 33 23 -20 c35 -33 62 -43
112 -43 79 0 144 51 165 130 22 82 -35 177 -121 200 -129 35 -247 -88 -204
-213 8 -23 11 -44 7 -48 -28 -24 -1574 -1071 -1576 -1067 -5 6 -221 290 -238
312 -16 22 -10 28 689 631 388 336 714 616 724 622 14 11 24 9 61 -12 99 -57
218 -6 248 105 21 78 -31 176 -107 201 -77 25 -172 -12 -208 -81 -19 -37 -19
-123 -1 -159 l15 -28 -741 -603 -741 -604 -44 50 c-24 27 -64 73 -89 101 l-46
53 359 478 358 479 254 261 253 261 37 -20 c105 -56 235 8 248 124 7 60 -11
110 -52 146 -91 79 -217 54 -266 -53 -24 -53 -23 -90 2 -146 l21 -45 -256
-249 -257 -249 -482 -362 -482 -362 -55 48 c-30 26 -76 67 -102 91 l-47 43
601 735 c382 467 607 734 617 733 9 -1 34 -7 56 -14 59 -17 108 -5 154 39 73
70 77 160 10 237 -92 104 -278 46 -290 -90 -4 -57 1 -82 25 -118 l25 -36 -620
-718 c-341 -395 -624 -719 -628 -721 -4 -1 -59 38 -122 88 -63 50 -135 105
-161 123 -26 18 -48 36 -48 40 0 6 912 1357 1049 1555 11 15 22 20 36 16 133
-38 235 22 243 145 10 160 -171 241 -284 127 -66 -66 -72 -154 -14 -220 l29
-33 -82 -114 c-46 -63 -298 -412 -561 -776 l-478 -662 -101 68 c-56 37 -135
87 -174 110 -40 24 -73 48 -73 54 0 5 208 383 463 839 354 634 466 827 477
822 43 -18 96 -15 139 8 75 39 111 114 90 190 -51 192 -331 157 -331 -42 0
-52 12 -81 49 -121 l25 -27 -485 -813 c-267 -448 -489 -815 -494 -816 -8 -3
-318 157 -360 184 -11 7 191 466 710 1613 l56 125 45 -3 c61 -5 106 11 144 51
56 58 66 121 31 194 -30 63 -92 97 -164 91 -155 -13 -211 -200 -89 -303 l23
-20 -150 -310 c-83 -170 -168 -346 -189 -390 -20 -44 -122 -253 -225 -465
-103 -212 -205 -422 -226 -467 -21 -46 -40 -83 -42 -83 -2 0 -71 29 -153 64
-82 34 -166 69 -186 75 -21 7 -40 16 -43 21 -3 5 133 404 301 887 168 483 308
886 311 896 4 13 16 17 55 17 163 0 235 191 113 299 -105 92 -275 13 -275
-128 0 -58 15 -92 61 -132 l40 -35 -339 -890 c-252 -662 -342 -888 -353 -885
-44 13 -383 122 -385 124 -3 2 267 1076 414 1652 l49 190 52 6 c155 20 211
201 92 301 -53 45 -147 50 -201 10 -99 -74 -93 -234 11 -288 26 -13 30 -20 26
-42 -8 -38 -508 -1803 -513 -1810 -1 -2 -71 12 -156 32 -84 19 -175 39 -203
44 -48 8 -50 9 -47 37 6 56 287 1799 297 1843 4 18 12 22 43 22 75 0 152 83
152 165 0 78 -53 144 -133 166 -52 14 -104 0 -152 -42 -87 -76 -65 -226 41
-276 19 -9 34 -20 34 -24 0 -4 -56 -302 -125 -661 -68 -359 -148 -777 -176
-928 -29 -151 -53 -276 -54 -277 -1 -3 -227 29 -233 32 -1 1 -30 193 -63 426
l-62 424 12 165 c6 91 23 332 38 536 l27 371 47 12 c46 12 94 52 118 98 6 12
11 44 11 71 0 122 -132 200 -247 145 -41 -19 -79 -73 -89 -126 -13 -76 47
-170 119 -184 29 -6 29 -7 24 -52 -3 -25 -22 -218 -43 -428 -21 -211 -41 -379
-45 -375 -3 4 -48 302 -99 662 -51 360 -95 670 -98 689 l-5 34 109 -7 c1760
-111 3378 -754 4710 -1872 1540 -1292 2552 -3131 2808 -5104 30 -230 69 -684
60 -701 -2 -3 -139 14 -306 38 -387 54 -457 61 -469 42 -15 -24 -11 -27 49
-40 31 -6 660 -98 1397 -204 l1340 -193 -1396 -1 c-768 -1 -1416 -4 -1441 -7
l-44 -6 -47 -236 c-26 -130 -45 -238 -42 -240 6 -6 148 12 615 78 189 27 345
48 346 47 9 -12 -40 -549 -72 -777 -291 -2098 -1436 -4028 -3152 -5313 -1242
-929 -2682 -1466 -4246 -1582 -115 -9 -211 -14 -213 -11 -5 5 186 1354 194
1376 4 8 12 -39 19 -105 19 -173 74 -717 74 -727 0 -4 -17 -15 -37 -23 -51
-22 -73 -43 -95 -94 -28 -61 -18 -120 28 -171 44 -49 82 -64 145 -58 118 12
185 135 133 245 -20 41 -76 81 -125 89 l-36 6 -6 82 c-2 44 -19 286 -37 536
l-33 455 62 424 c33 233 62 425 63 427 5 4 230 36 232 32 2 -2 28 -136 59
-298 31 -162 111 -583 178 -934 83 -432 119 -641 111 -644 -24 -8 -76 -49 -96
-75 -16 -22 -21 -43 -21 -91 0 -53 4 -68 28 -99 36 -48 79 -69 137 -69 58 0
101 21 137 69 24 31 28 46 28 99 0 91 -44 143 -140 168 l-50 12 -41 255 c-74
448 -253 1563 -256 1593 -3 27 0 30 37 38 22 4 113 24 203 44 89 21 164 35
166 33 2 -2 65 -222 141 -489 75 -267 191 -674 256 -904 65 -231 119 -424 119
-430 -1 -6 -15 -20 -33 -31 -52 -33 -77 -80 -77 -145 0 -72 37 -128 99 -154
53 -21 86 -20 137 3 104 47 132 173 58 261 -35 41 -59 53 -118 60 l-50 5 -67
265 c-36 146 -139 553 -228 905 -89 352 -163 649 -164 659 -1 15 7 22 33 30
19 5 108 33 198 62 89 28 164 48 167 44 5 -8 32 -79 431 -1129 l245 -644 -36
-29 c-47 -39 -65 -77 -65 -135 0 -146 167 -222 279 -127 39 32 66 102 58 150
-8 51 -49 108 -90 127 -19 10 -57 17 -84 17 -47 0 -50 2 -60 32 -6 18 -146
422 -312 897 -165 476 -301 867 -301 871 0 3 17 12 38 19 20 7 106 42 190 78
85 36 158 61 162 57 7 -8 308 -627 520 -1069 32 -66 114 -236 183 -379 l126
-258 -34 -32 c-62 -58 -73 -139 -30 -212 59 -101 193 -111 272 -21 100 115 7
290 -147 275 -47 -5 -48 -4 -65 31 -52 108 -765 1704 -763 1706 2 2 62 32 133
68 72 36 155 79 184 96 29 18 55 31 56 29 1 -2 222 -371 490 -821 l488 -818
-25 -27 c-38 -41 -50 -70 -50 -122 0 -135 142 -212 259 -140 88 53 103 174 32
255 -37 42 -83 58 -155 53 l-56 -3 -463 830 -463 829 86 52 c48 29 128 80 177
113 l90 61 23 -27 c12 -16 265 -364 561 -776 l540 -747 -25 -27 c-74 -80 -46
-209 56 -260 55 -29 92 -29 147 -2 63 31 97 92 91 165 -5 58 -24 93 -72 128
-21 16 -42 21 -89 20 -34 0 -71 -3 -82 -7 -17 -6 -28 5 -71 70 -29 43 -268
397 -533 786 -264 390 -481 712 -481 716 0 4 28 27 62 51 34 24 108 81 164
126 l103 82 626 -724 625 -724 -20 -28 c-63 -85 -31 -210 64 -253 52 -23 90
-23 142 0 75 34 117 119 95 193 -14 45 -53 93 -92 113 -37 20 -112 19 -150 -1
-17 -8 -32 -14 -33 -12 -37 46 -1014 1244 -1093 1340 l-113 138 71 68 71 68
-41 28 c-37 26 -43 27 -59 14 -441 -374 -832 -634 -1287 -854 -484 -234 -1019
-401 -1547 -483 -97 -15 -118 -16 -118 -4 0 43 32 218 41 224 6 4 35 9 64 13
81 9 294 53 450 92 796 199 1571 603 2168 1130 74 65 113 93 125 90 15 -5 17
4 18 77 0 51 7 102 18 135 l18 52 -97 105 c-54 58 -525 530 -1047 1050 -802
799 -953 945 -977 945 -66 0 -285 -94 -295 -127 -13 -43 -87 -551 -631 -4363
-317 -2219 -578 -4037 -581 -4039 -2 -2 -4 1853 -4 4123 l0 4126 -22 9 c-118
48 -333 126 -373 137 -66 18 -167 18 -238 -1 -32 -8 -112 -36 -180 -61 -175
-66 -241 -84 -336 -91 l-84 -6 8 -91 c5 -50 9 -105 9 -123 1 -30 -51 -71
-1689 -1299 -929 -697 -1688 -1264 -1685 -1261 3 3 664 666 1470 1472 1357
1360 1463 1468 1445 1481 -44 32 -126 54 -204 54 -101 0 -170 -21 -353 -109
-142 -68 -238 -104 -311 -117 -27 -5 -48 -18 -78 -53 -23 -25 -303 -394 -622
-819 -568 -756 -580 -772 -600 -755 -11 10 -63 70 -116 133 -567 677 -942
1467 -1121 2363 -18 87 -30 167 -27 178 12 45 -18 57 -213 89 -262 42 -751
110 -841 117 -71 5 -76 4 -81 -15 -7 -26 0 -28 372 -82 151 -22 279 -42 285
-43 7 -3 46 -226 41 -233 -1 -1 -122 -25 -271 -54 -392 -75 -405 -79 -405
-101 0 -15 5 -18 23 -15 12 3 60 10 107 16 47 6 192 28 322 48 l237 38 11 -55
c6 -31 26 -123 45 -205 19 -82 34 -150 33 -152 -2 -1 -124 -37 -273 -79 -593
-168 -893 -260 -882 -271 6 -7 1099 258 1159 281 12 5 19 -8 33 -57 9 -35 37
-125 62 -201 24 -77 43 -141 41 -143 -4 -4 -1718 -657 -1755 -668 -18 -6 -29
0 -55 30 -60 68 -140 83 -215 39 -113 -67 -109 -234 7 -292 117 -60 243 15
247 146 l1 55 49 17 c103 36 964 336 1278 445 182 63 361 126 398 139 38 14
70 25 72 25 1 0 23 -51 48 -112 25 -62 61 -150 81 -196 l36 -83 -143 -68 c-78
-38 -437 -211 -797 -386 -360 -175 -683 -331 -718 -347 l-63 -29 -21 27 c-26
32 -92 64 -133 64 -50 0 -111 -35 -140 -79 -75 -112 6 -261 141 -261 101 0
183 95 169 194 -6 41 -6 42 32 60 37 18 1411 635 1606 722 l98 43 26 -57 c15
-31 58 -115 96 -186 38 -70 65 -132 60 -136 -10 -11 -1603 -961 -1622 -968 -8
-3 -19 2 -25 10 -43 59 -155 77 -217 35 -53 -35 -79 -82 -79 -139 0 -92 54
-157 143 -174 112 -20 217 96 188 210 -5 22 -9 41 -8 42 1 1 375 209 831 464
681 380 830 460 840 448 7 -7 55 -80 107 -161 52 -82 98 -155 104 -163 6 -9 6
-17 0 -22 -6 -5 -336 -245 -735 -532 -399 -288 -743 -536 -764 -551 l-39 -28
-29 24 c-63 53 -154 53 -218 -1 -42 -36 -60 -74 -60 -129 0 -55 18 -93 60
-129 86 -72 215 -44 261 58 22 49 24 85 5 130 l-14 34 281 192 c649 441 1297
880 1301 880 3 0 28 -33 57 -72 29 -40 86 -115 127 -167 61 -77 72 -95 61
-105 -42 -38 -1397 -1206 -1420 -1224 -14 -11 -23 -9 -55 14 -34 22 -47 25
-97 22 -95 -7 -157 -71 -157 -160 0 -65 24 -114 70 -144 52 -34 100 -40 155
-20 98 38 143 159 90 242 -13 20 -9 25 53 75 37 30 227 185 422 344 195 159
498 406 673 548 174 142 321 257 325 255 21 -8 173 -190 169 -201 -3 -7 -164
-224 -359 -483 l-353 -471 -253 -260 -252 -260 -50 25 c-39 19 -57 23 -89 17
-81 -14 -151 -90 -151 -165 0 -50 32 -113 71 -141 50 -35 142 -39 188 -7 53
36 74 71 78 130 3 40 -1 63 -17 93 l-21 40 248 243 248 243 492 370 493 370
97 -88 c54 -48 98 -91 98 -94 0 -4 -86 -112 -191 -240 -104 -129 -370 -454
-590 -724 -219 -269 -404 -495 -410 -503 -9 -12 -15 -12 -44 3 -24 12 -49 16
-87 13 -89 -8 -143 -62 -151 -151 -8 -94 50 -169 142 -184 43 -7 113 17 144
50 54 58 64 156 21 210 -10 14 -19 30 -19 35 0 11 58 78 789 925 l455 525 70
-57 c39 -32 114 -90 168 -130 l96 -72 -93 -137 c-51 -75 -291 -429 -534 -787
-329 -483 -446 -649 -459 -647 -74 14 -129 12 -162 -6 -65 -35 -100 -112 -85
-188 9 -52 69 -111 127 -126 151 -39 268 143 173 268 -15 19 -23 39 -19 47 4
6 255 355 557 775 l550 762 26 -17 c70 -46 317 -203 324 -206 5 -1 -202 -379
-459 -839 -433 -777 -469 -836 -487 -826 -11 5 -44 8 -73 6 -91 -8 -154 -76
-154 -167 0 -156 193 -228 294 -110 59 70 58 160 -4 224 l-31 32 232 389 c531
892 722 1210 735 1231 l14 23 63 -36 c34 -19 117 -63 185 -97 67 -34 122 -64
122 -67 0 -3 -175 -395 -388 -870 l-389 -865 -46 3 c-63 5 -110 -12 -146 -53
-66 -76 -62 -168 10 -237 60 -57 139 -63 210 -15 91 61 97 196 11 269 l-29 24
126 260 c69 143 256 528 415 857 159 328 292 597 296 597 3 0 62 -24 131 -54
68 -29 152 -63 187 -76 34 -12 62 -27 62 -33 0 -6 -45 -141 -101 -301 -56
-160 -174 -502 -264 -761 -90 -258 -184 -530 -210 -603 l-47 -132 -50 0 c-101
0 -170 -70 -170 -172 2 -198 289 -223 333 -29 13 59 -7 116 -56 159 l-43 38
68 179 c37 99 122 322 187 495 66 173 187 491 268 705 81 215 150 393 154 397
3 4 49 -8 101 -26 52 -18 141 -46 197 -62 57 -16 103 -33 103 -37 0 -4 -81
-328 -180 -720 -99 -392 -204 -805 -232 -918 l-52 -207 -54 -4 c-91 -8 -152
-73 -152 -162 0 -119 102 -199 213 -166 82 24 136 114 121 198 -7 36 -71 113
-103 123 -11 4 -7 28 19 119 18 63 102 360 186 660 85 300 187 658 226 795 38
138 74 254 78 259 5 4 68 -6 142 -23 73 -17 162 -36 198 -43 36 -6 66 -13 68
-14 2 -1 -24 -172 -58 -381 -34 -208 -79 -486 -100 -618 -21 -132 -62 -385
-91 -562 l-52 -321 -43 -7 c-61 -9 -118 -54 -139 -109 -43 -112 41 -230 161
-228 64 0 121 38 153 99 14 28 14 108 0 136 -15 29 -70 87 -83 87 -35 1 -36
15 -10 151 14 74 81 429 150 789 69 360 137 718 151 795 15 77 30 143 33 148
6 7 220 -20 229 -29 3 -3 32 -197 66 -432 57 -402 60 -433 53 -538 -4 -61 -21
-295 -38 -520 -16 -225 -30 -414 -30 -420 0 -6 -18 -14 -40 -18 -47 -7 -107
-56 -126 -103 -20 -46 -17 -97 6 -143 27 -53 72 -83 135 -88 117 -10 202 87
180 205 -8 44 -81 123 -113 123 -11 0 -23 3 -26 8 -2 4 9 136 25 292 16 157
34 337 40 400 6 63 14 128 17 143 5 18 43 -222 106 -668 55 -382 97 -697 94
-700 -12 -12 -515 33 -783 70 -1399 195 -2774 792 -3890 1689 -332 267 -819
738 -1075 1040 -820 965 -1362 2003 -1690 3236 -61 230 -54 215 -110 239 -27
12 -51 21 -53 21 -7 0 9 -88 42 -225 96 -406 252 -869 438 -1293 41 -95 74
-175 72 -177 -6 -5 -312 -146 -322 -148 -10 -2 -110 218 -191 423 -261 653
-441 1337 -531 2010 -21 159 -46 393 -42 396 3 3 323 34 351 34 10 0 16 -19
21 -62 12 -117 47 -373 54 -391 6 -15 13 -10 47 32 l40 49 -7 79 c-28 283 -39
424 -45 537 l-7 128 29 -6 c33 -7 556 -80 688 -96 91 -11 105 -8 106 26 0 17
7 16 -1480 229 l-1345 194 1370 0 c754 1 1406 4 1451 7 l81 7 22 216 c12 119
24 227 27 240 5 23 4 23 -58 16 -102 -11 -476 -64 -569 -81 -83 -15 -88 -17
-150 -75 -152 -143 -323 -198 -475 -154 -110 32 -183 103 -240 232 -34 78 -44
78 -44 -1 0 -24 -3 -64 -6 -88 l-6 -46 -62 -6 c-74 -8 -1727 -243 -1776 -252
l-35 -7 35 -7 c19 -5 441 -66 936 -136 l902 -129 6 -130 c64 -1206 339 -2293
853 -3365 378 -787 936 -1587 1542 -2213 l105 -108 -652 -652 c-359 -359 -652
-657 -652 -663 0 -6 9 -19 20 -29 21 -19 27 -13 678 637 l657 657 122 -118
c395 -385 896 -773 1411 -1095 431 -269 975 -539 1486 -736 425 -164 1014
-329 1481 -414 398 -72 956 -136 1205 -136 47 0 91 -4 98 -9 10 -6 54 -287
145 -929 73 -506 135 -923 138 -926 3 -3 65 411 138 921 73 510 134 930 136
933 2 4 80 10 172 13 809 30 1772 229 2590 535 1047 392 2085 1039 2883 1797
52 49 112 106 133 125 l38 34 654 -654 654 -654 26 24 26 24 -656 656 -655
655 141 150 c1321 1400 2131 3168 2323 5075 13 127 32 393 39 545 l2 50 850
122 c468 67 888 127 935 134 73 11 81 14 55 21 -16 4 -428 64 -915 133 -487
69 -894 127 -906 130 -20 4 -21 13 -28 157 -39 910 -249 1887 -591 2748 -416
1048 -1010 1974 -1804 2810 l-100 105 655 655 655 656 -26 24 -26 24 -654
-654 -654 -654 -123 116 c-238 223 -376 343 -598 520 -1402 1114 -3109 1760
-4909 1857 -101 6 -185 12 -187 13 -1 2 -62 417 -134 923 -72 506 -132 925
-134 930 -2 6 -6 3 -9 -5z m-736 -2178 c8 -97 15 -178 14 -180 -2 -1 -67 -9
-146 -18 -831 -86 -1679 -314 -2446 -657 l-122 -54 -76 165 c-42 91 -73 168
-68 172 13 13 252 115 451 195 719 285 1502 474 2292 553 41 5 77 6 80 4 3 -2
12 -83 21 -180z m1979 128 c626 -92 1251 -256 1830 -480 193 -75 500 -206 514
-220 10 -10 -133 -330 -147 -330 -5 0 -65 25 -133 55 -754 333 -1560 551
-2388 645 -99 11 -181 22 -184 25 -5 4 14 255 24 326 l5 35 167 -17 c92 -10
232 -27 312 -39z m-6041 -1608 c56 -79 101 -147 101 -151 0 -4 -57 -50 -127
-102 -271 -199 -536 -420 -782 -653 -74 -69 -137 -126 -140 -126 -3 0 -64 58
-134 128 l-128 128 123 115 c277 260 498 447 772 653 157 118 209 155 213 152
1 0 47 -65 102 -144z m9796 84 c136 -98 372 -283 510 -400 136 -114 422 -374
477 -433 l28 -29 -129 -128 -129 -129 -174 160 c-268 249 -459 408 -728 607
-80 59 -145 112 -145 117 0 19 200 297 210 291 6 -3 42 -28 80 -56z m-10922
-1044 l127 -128 -121 -129 c-242 -258 -423 -472 -608 -720 -61 -82 -122 -162
-134 -177 l-22 -27 -138 98 c-76 54 -142 102 -147 107 -16 16 261 383 485 644
124 145 414 460 424 460 3 0 64 -58 134 -128z m12129 -14 c163 -174 310 -341
444 -508 108 -135 307 -398 324 -430 11 -21 3 -28 -192 -163 l-96 -67 -72 100
c-172 241 -418 537 -668 805 l-140 150 126 128 c70 70 130 127 133 127 4 0 67
-64 141 -142z m-6942 -513 c-9 -63 -19 -117 -22 -120 -2 -3 -58 -14 -124 -25
-955 -164 -1844 -585 -2566 -1214 l-109 -95 -94 70 -94 71 54 50 c683 624
1570 1085 2480 1288 116 26 442 87 481 89 7 1 5 -36 -6 -114z m1595 94 c553
-77 1224 -302 1750 -587 409 -221 706 -431 1109 -784 l39 -34 -94 -70 -94 -71
-110 95 c-750 646 -1650 1065 -2622 1222 -40 7 -73 15 -73 18 0 4 -7 50 -15
102 -20 129 -20 131 8 126 12 -3 58 -10 102 -17z m163 -379 c874 -176 1648
-552 2335 -1133 95 -81 116 -102 105 -112 -11 -11 -376 -284 -1959 -1471
l-296 -222 -208 1457 c-114 801 -210 1471 -213 1489 -6 42 -9 42 236 -8z
m6794 -1623 c303 -689 502 -1370 623 -2132 18 -111 65 -498 65 -531 0 -20 -8
-22 -137 -33 -76 -7 -158 -14 -183 -17 l-46 -6 -12 128 c-78 804 -322 1719
-656 2463 -31 68 -54 126 -52 128 4 5 320 152 326 152 3 1 35 -68 72 -152z
m-13145 -4183 c59 -9 109 -17 110 -18 1 -1 9 -46 18 -101 128 -800 450 -1571
937 -2242 91 -125 318 -405 351 -432 9 -7 17 -18 17 -24 0 -5 -30 -50 -67
-100 l-67 -90 -55 59 c-77 83 -233 272 -317 384 -465 621 -802 1351 -968 2095
-32 144 -86 441 -86 473 0 15 -2 15 127 -4z m13658 1 c88 -8 164 -15 169 -15
10 0 4 -77 -30 -338 -99 -778 -313 -1563 -622 -2277 -35 -82 -73 -166 -83
-187 l-19 -36 -162 75 c-90 42 -164 77 -166 78 -1 1 24 63 57 138 318 716 530
1478 630 2257 11 85 23 192 27 238 6 66 10 82 23 82 9 0 88 -7 176 -15z
m-9315 -2861 c116 -808 210 -1477 210 -1487 0 -22 -3 -22 -255 28 -830 167
-1613 545 -2280 1101 -130 109 -152 131 -141 142 17 16 2251 1690 2254 1687 1
-1 97 -663 212 -1471z m3369 596 c599 -448 1090 -818 1090 -822 1 -10 -232
-203 -374 -309 -546 -406 -1166 -703 -1810 -867 -233 -60 -505 -111 -505 -95
0 4 95 670 210 1479 116 809 210 1477 210 1483 0 7 20 -2 45 -21 25 -18 535
-400 1134 -848z m-5841 -976 c200 -176 460 -367 717 -525 187 -116 540 -295
745 -379 356 -145 872 -289 1161 -325 31 -4 62 -11 69 -15 12 -7 39 -152 40
-211 l0 -26 -142 23 c-842 135 -1633 460 -2323 953 -223 159 -550 431 -543
452 3 7 168 139 176 139 1 0 46 -39 100 -86z m-3125 -839 c175 -244 453 -577
675 -807 l116 -119 -130 -130 -129 -130 -132 136 c-125 128 -281 304 -435 491
-75 91 -358 466 -358 474 1 6 293 210 300 209 3 0 45 -56 93 -124z m13427 17
c74 -52 137 -96 139 -98 13 -11 -296 -414 -497 -649 -115 -134 -412 -455 -421
-455 -3 0 -64 57 -134 128 l-127 127 126 135 c252 269 438 491 636 757 73 99
125 160 132 156 6 -4 72 -49 146 -101z m-12239 -1318 c170 -150 334 -283 530
-429 l176 -131 -102 -145 c-61 -87 -108 -144 -118 -143 -19 2 -316 224 -492
369 -166 136 -417 361 -520 464 l-80 81 129 129 130 130 116 -112 c64 -62 168
-157 231 -213z m11282 188 l128 -128 -128 -120 c-244 -229 -443 -399 -683
-585 -119 -93 -281 -209 -290 -209 -7 0 -210 283 -210 293 0 3 57 47 128 98
282 208 519 406 801 671 63 60 117 108 120 108 4 0 64 -58 134 -128z m-9045
-1593 c720 -304 1489 -504 2260 -588 95 -10 174 -20 176 -22 1 -2 -5 -84 -13
-181 l-15 -178 -34 0 c-53 0 -429 48 -602 76 -565 93 -1137 248 -1672 454
-165 64 -486 200 -517 219 -13 9 -10 18 116 288 l24 52 57 -26 c31 -14 131
-56 220 -94z m6681 -47 c39 -85 71 -157 71 -161 0 -14 -285 -140 -527 -232
-488 -186 -970 -323 -1480 -419 -286 -54 -805 -122 -819 -107 -4 4 -14 84 -22
178 -11 126 -12 173 -4 178 7 4 69 13 139 19 787 77 1711 326 2438 655 66 30
123 51 127 48 3 -3 38 -75 77 -159z"/>
<path d="M16265 17438 c-76 -27 -154 -110 -175 -187 -27 -98 -1 -192 75 -268
54 -53 122 -83 190 -83 92 0 191 60 243 148 23 41 27 58 27 127 0 70 -4 87
-30 134 -31 56 -88 106 -148 128 -40 14 -142 15 -182 1z"/>
<path d="M12300 10537 c-100 -28 -167 -94 -196 -195 -50 -171 82 -344 261
-344 156 0 274 117 275 272 0 81 -30 150 -88 202 -71 64 -166 89 -252 65z"/>
<path d="M16288 10536 c-248 -68 -282 -400 -52 -512 218 -106 457 107 378 338
-43 128 -197 210 -326 174z"/>
<path d="M6862 23124 c-15 -10 -22 -25 -22 -48 0 -38 15 -54 82 -85 123 -58
196 -221 257 -571 22 -123 64 -490 57 -497 -6 -6 -278 283 -376 402 -91 110
-189 241 -225 303 -11 17 -23 32 -29 32 -15 0 1 -265 24 -395 11 -66 43 -230
69 -365 54 -270 75 -399 67 -407 -7 -8 -264 235 -313 297 -63 79 -139 239
-168 355 -14 54 -27 100 -29 102 -8 8 -158 -195 -187 -252 -61 -123 -74 -235
-40 -344 36 -114 88 -180 161 -201 25 -7 35 -5 57 14 43 37 27 68 -55 108 -52
26 -72 42 -89 73 -29 52 -38 132 -24 202 12 62 64 173 92 199 18 16 19 16 19
-7 0 -35 34 -148 60 -199 37 -73 79 -129 159 -214 113 -117 429 -386 456 -386
8 0 1 60 -36 313 -27 186 -41 258 -118 626 -17 80 -29 146 -28 147 1 2 37 -41
80 -94 42 -53 103 -125 135 -159 246 -264 408 -433 416 -433 12 0 1 246 -19
440 -35 340 -84 613 -135 753 -82 224 -212 351 -298 291z"/>
<path d="M21883 22535 c-100 -31 -206 -124 -219 -191 -8 -43 -2 -58 31 -80 39
-26 71 -7 86 51 35 140 174 201 320 141 57 -23 199 -112 199 -124 0 -9 -272
-186 -426 -278 -280 -167 -432 -226 -526 -205 -62 14 -85 44 -102 130 -14 75
-31 101 -67 101 -24 0 -59 -47 -59 -79 0 -42 48 -128 93 -166 114 -98 274 -82
501 47 141 80 385 227 449 269 61 41 76 47 59 27 -5 -7 -72 -136 -147 -287
-119 -236 -281 -609 -270 -620 2 -2 86 48 187 111 477 299 708 418 812 418 43
0 91 -38 112 -88 21 -51 43 -72 74 -72 57 0 77 64 40 125 -40 64 -134 115
-214 115 -103 0 -278 -80 -569 -258 -108 -67 -199 -122 -201 -122 -3 0 19 51
48 113 124 262 210 430 280 547 42 69 76 130 75 135 0 10 -118 97 -242 177
-110 72 -225 94 -324 63z"/>
<path d="M5895 21924 c-81 -42 -125 -121 -125 -221 0 -124 52 -241 243 -556
70 -114 127 -210 127 -212 0 -15 -507 236 -656 325 -75 45 -139 78 -144 73
-32 -36 -184 -258 -203 -298 -52 -103 -55 -232 -7 -325 26 -51 94 -126 131
-146 61 -31 129 -8 129 44 0 29 -24 50 -73 63 -58 15 -92 42 -124 97 -56 95
-30 214 78 366 l42 58 121 -184 c295 -449 400 -687 353 -800 -20 -47 -52 -67
-118 -75 -92 -10 -126 -48 -86 -99 18 -24 25 -26 73 -22 37 3 65 13 93 32 137
95 158 256 62 463 -31 65 -268 469 -323 550 -15 23 -28 44 -28 47 0 3 127 -59
283 -138 251 -127 612 -284 625 -272 2 3 -61 110 -140 238 -183 295 -271 448
-325 568 -85 188 -80 246 28 301 82 41 97 72 54 114 -28 29 -48 31 -90 9z"/>
<path d="M22790 21639 c-88 -10 -168 -42 -239 -95 -59 -44 -116 -117 -128
-163 -9 -36 9 -74 40 -85 41 -15 58 1 89 80 36 88 109 162 187 187 73 23 187
22 258 -3 57 -20 163 -84 163 -98 0 -9 -25 -24 -348 -213 -291 -170 -425 -239
-479 -246 -31 -4 -53 2 -99 25 -57 29 -61 29 -82 14 -22 -17 -22 -17 40 -67
111 -89 208 -187 328 -330 140 -168 191 -216 253 -240 121 -46 257 23 233 118
-3 13 -17 29 -31 35 -35 16 -65 0 -98 -54 -21 -36 -32 -44 -55 -44 -43 0 -74
30 -149 143 -64 97 -174 219 -236 262 l-29 20 94 39 c51 21 150 70 220 107 70
38 131 69 137 69 13 0 191 -189 191 -202 0 -7 -14 -26 -30 -43 -29 -30 -30
-32 -12 -48 17 -16 24 -13 117 48 54 36 101 67 103 70 3 3 -3 14 -12 24 -16
18 -19 18 -46 3 -24 -14 -32 -14 -53 -3 -29 16 -203 188 -196 195 2 3 81 50
174 105 l170 101 108 -107 c126 -126 153 -163 138 -192 -6 -11 -22 -28 -36
-39 -28 -23 -31 -35 -11 -51 11 -9 25 -5 68 22 29 19 72 46 96 61 l43 27 -43
31 c-24 18 -135 122 -248 232 -120 117 -229 215 -261 234 -108 64 -207 85
-329 71z"/>
<path d="M11896 17549 c-280 -38 -542 -162 -793 -373 -96 -81 -238 -228 -319
-331 -252 -322 -442 -830 -569 -1520 -39 -214 -58 -346 -144 -1055 -112 -916
-121 -988 -121 -996 0 -4 -41 55 -91 132 -151 230 -325 451 -744 943 -593 697
-877 1264 -837 1672 l8 77 -61 6 c-141 15 -435 18 -555 7 -598 -57 -1094 -328
-1412 -773 -228 -317 -325 -767 -253 -1168 18 -101 43 -190 53 -190 4 1 112
103 241 228 233 227 234 228 218 253 -26 40 -77 178 -99 268 -29 119 -29 313
1 424 87 328 366 515 857 572 161 19 464 21 464 3 0 -15 -232 -2123 -255
-2318 -34 -287 -86 -494 -156 -619 -43 -77 -169 -218 -239 -266 l-40 -28 -162
15 -161 14 -126 -121 c-69 -66 -154 -147 -189 -179 -34 -33 -60 -62 -57 -64 3
-3 289 -20 637 -38 l633 -32 172 171 c95 94 171 172 170 173 -1 2 -142 15
-312 30 -171 15 -312 29 -314 31 -3 2 6 11 18 20 72 50 232 197 292 267 107
126 166 263 209 491 16 83 210 1765 210 1819 0 5 31 -51 68 -125 84 -165 145
-266 255 -431 151 -225 239 -338 676 -869 526 -639 650 -856 806 -1414 l53
-190 45 95 c25 52 108 225 186 385 l142 289 80 641 c43 352 111 897 149 1210
110 889 130 1027 196 1333 134 626 309 950 589 1088 104 51 208 74 335 74 136
0 228 -23 376 -94 l111 -53 217 211 c119 116 217 214 216 218 0 10 -150 54
-250 73 -103 20 -330 27 -424 14z"/>
<path d="M12621 17125 c-3 -23 -120 -134 -192 -182 -23 -15 -36 -29 -30 -31
21 -7 106 28 143 58 39 32 94 130 85 152 -3 7 -6 9 -6 3z"/>
<path d="M11645 16823 c-81 -11 -197 -61 -255 -112 l-35 -30 372 -372 372
-373 30 40 c16 23 60 64 97 92 104 79 208 112 346 112 l70 0 -44 37 c-52 44
-653 495 -751 564 -73 51 -97 56 -202 42z"/>
<path d="M7035 16457 c-54 -30 -88 -95 -82 -155 3 -24 9 -48 14 -53 5 -5 42 2
94 19 46 16 114 37 152 47 76 20 81 31 44 86 -53 79 -142 101 -222 56z"/>
<path d="M11145 16372 c-8 -28 -12 -23 521 -732 468 -622 460 -612 469 -587 5
13 -4 36 -31 75 -42 61 -886 1188 -927 1237 -24 29 -24 29 -32 7z"/>
<path d="M12365 15839 c-93 -87 -171 -163 -172 -167 -2 -4 13 -18 32 -31 58
-39 151 -146 197 -225 l43 -74 168 165 168 165 -27 51 c-43 84 -109 171 -171
226 -32 28 -60 51 -63 51 -3 -1 -81 -73 -175 -161z"/>
<path d="M13311 15838 c-95 -88 -170 -164 -169 -168 2 -4 27 -26 56 -49 62
-49 129 -132 179 -219 l36 -64 163 163 c90 90 164 171 164 179 0 47 -150 242
-231 301 l-27 19 -171 -162z"/>
<path d="M17723 15977 c-179 -66 -240 -292 -117 -436 138 -161 403 -109 470
91 35 107 -6 240 -94 302 -59 42 -97 54 -167 54 -33 0 -74 -5 -92 -11z"/>
<path d="M11005 15887 c-16 -69 -75 -407 -75 -429 0 -14 64 -1 110 22 49 25
103 87 125 143 21 56 17 155 -9 208 -20 43 -69 95 -107 115 l-27 14 -17 -73z"/>
<path d="M21871 15163 c-48 -24 -81 -78 -83 -138 -1 -60 10 -90 48 -129 37
-36 63 -46 123 -46 56 0 103 27 139 80 20 29 23 44 20 93 -5 64 -25 98 -78
135 -40 27 -119 30 -169 5z"/>
<path d="M6821 15134 c-37 -47 -81 -190 -81 -262 0 -23 2 -24 49 -20 60 6 105
36 132 90 17 32 24 39 42 34 57 -14 351 -66 370 -65 46 1 -18 17 -178 43 -230
38 -215 34 -215 64 0 40 -39 111 -70 127 -27 14 -30 13 -49 -11z"/>
<path d="M3735 14975 c-74 -39 -81 -87 -33 -220 28 -79 32 -103 32 -190 0 -68
-6 -121 -19 -165 -78 -269 -334 -677 -750 -1195 -141 -176 -261 -324 -267
-330 -7 -7 -8 72 -4 255 16 657 61 1141 140 1488 13 56 20 102 16 102 -13 0
-234 -224 -291 -295 -112 -139 -259 -348 -570 -811 -174 -260 -354 -520 -400
-579 l-84 -108 -7 49 c-16 122 -28 631 -18 734 30 289 129 560 301 826 34 52
60 96 58 98 -6 5 -365 -42 -454 -60 -347 -67 -602 -273 -702 -568 -23 -67 -28
-98 -28 -181 0 -84 4 -107 23 -147 28 -57 63 -81 116 -81 32 0 45 6 68 32 38
42 36 80 -7 170 -45 94 -52 140 -31 221 23 90 57 143 150 235 68 68 98 89 186
132 58 28 132 58 165 67 55 14 175 36 175 31 0 -1 -25 -40 -56 -85 -120 -179
-182 -337 -209 -530 -20 -147 -20 -518 0 -796 15 -217 52 -545 65 -578 6 -17
26 5 121 125 292 367 569 758 824 1164 109 172 197 306 243 365 l35 45 -7 -35
c-36 -188 -59 -538 -76 -1165 -5 -203 -12 -418 -16 -477 -3 -60 -2 -108 3
-108 21 0 287 288 479 520 399 480 738 955 874 1225 74 145 143 342 161 455
23 151 -11 302 -81 352 -37 27 -89 32 -125 13z"/>
<path d="M15493 14959 c-353 -34 -672 -229 -804 -492 -68 -133 -87 -306 -49
-428 43 -139 163 -309 365 -519 355 -368 472 -524 521 -695 31 -108 6 -260
-57 -351 -66 -97 -174 -138 -359 -137 -217 1 -379 63 -525 202 l-40 38 -198
-162 c-109 -89 -200 -165 -203 -168 -9 -9 121 -71 209 -100 138 -47 238 -61
412 -61 222 1 395 39 570 126 219 110 427 304 517 483 63 123 91 289 68 400
-33 161 -171 370 -410 620 -271 285 -333 355 -410 471 -87 128 -105 175 -105
275 0 78 3 90 30 134 41 66 110 103 207 114 166 18 344 -22 491 -111 l81 -48
34 32 c19 18 43 40 52 48 9 8 72 67 139 130 l124 115 -29 11 c-52 21 -257 63
-363 74 -115 11 -136 11 -268 -1z"/>
<path d="M17675 14964 c-305 -30 -516 -118 -698 -293 -137 -131 -210 -280
-223 -454 -17 -216 90 -395 467 -784 221 -228 369 -422 421 -551 19 -47 23
-76 23 -162 0 -58 -6 -124 -13 -147 -31 -102 -119 -186 -231 -220 -78 -24
-271 -23 -366 1 -127 33 -273 114 -344 190 -14 14 -28 26 -33 26 -6 0 -341
-267 -402 -321 -22 -19 225 -117 371 -146 122 -24 376 -24 493 1 262 54 483
171 665 351 162 160 244 329 253 520 4 89 1 109 -22 179 -57 169 -168 323
-440 611 -274 289 -354 388 -422 521 -49 95 -61 154 -46 229 28 139 123 197
322 196 160 0 312 -46 436 -131 l46 -32 26 24 c161 146 317 295 317 302 0 11
-145 50 -260 70 -86 15 -275 26 -340 20z"/>
<path d="M19202 14959 c-116 -23 -288 -136 -461 -303 -221 -216 -277 -354
-177 -445 14 -14 28 -23 30 -20 2 2 25 42 51 88 59 102 147 215 203 259 55 44
124 73 177 75 56 2 96 -33 125 -110 39 -104 49 -212 75 -768 54 -1185 57
-1229 96 -1373 35 -131 89 -216 163 -255 61 -32 162 -30 238 5 261 120 628
540 942 1078 41 70 65 103 62 85 -3 -16 -69 -356 -146 -754 -190 -981 -230
-1154 -341 -1477 -146 -422 -307 -668 -531 -808 -190 -118 -387 -167 -668
-167 -196 0 -380 35 -534 100 l-44 19 -68 -76 c-38 -42 -117 -130 -176 -195
-60 -66 -108 -123 -108 -128 0 -11 144 -54 249 -73 48 -10 139 -16 217 -16
462 0 898 158 1287 467 124 99 379 357 462 468 225 300 412 733 546 1262 26
106 143 671 260 1256 260 1310 300 1491 384 1736 14 41 25 76 25 77 0 3 -314
-105 -460 -158 l-65 -23 -60 -320 c-70 -369 -84 -430 -132 -580 -177 -551
-616 -1199 -874 -1291 -66 -23 -111 -18 -141 14 -91 97 -107 209 -153 1062
-38 707 -45 800 -76 952 -43 216 -110 307 -247 337 -59 12 -69 12 -130 0z"/>
<path d="M12976 14920 c-417 -48 -753 -209 -1076 -517 -323 -307 -549 -698
-650 -1124 -67 -285 -78 -668 -25 -874 34 -130 111 -242 197 -286 139 -71 351
-36 568 92 303 179 688 583 947 992 31 48 58 86 60 84 2 -2 -10 -94 -26 -204
-85 -564 -99 -765 -61 -867 74 -196 328 -177 593 44 208 174 487 549 487 654
0 23 -10 42 -32 64 -17 18 -35 31 -40 30 -5 -2 -32 -46 -60 -98 -117 -220
-233 -361 -337 -413 -68 -33 -130 -36 -156 -7 -42 47 -35 142 66 845 137 954
168 1154 205 1316 20 90 37 173 38 183 1 24 -61 45 -204 70 -114 20 -384 28
-494 16z m-172 -305 c148 -26 366 -112 366 -145 0 -37 -61 -418 -80 -498 -100
-422 -297 -781 -604 -1100 -250 -260 -478 -385 -638 -351 -72 16 -117 64 -149
160 -22 69 -24 88 -23 269 1 203 11 316 45 510 70 405 243 769 464 979 174
164 369 219 619 176z"/>
<path d="M12445 14150 c-108 -42 -228 -188 -305 -371 l-39 -94 72 -6 c40 -4
133 -6 207 -6 74 0 168 2 209 6 l75 6 29 80 c99 274 -27 470 -248 385z"/>
<path d="M11805 14814 c-195 -25 -818 -115 -894 -130 -41 -7 -78 -19 -81 -25
-7 -10 -41 -314 -60 -529 -5 -58 -9 -183 -10 -277 l0 -173 138 0 139 0 11 26
c21 44 193 324 273 444 149 221 286 376 498 560 72 62 131 115 131 117 0 4
-21 3 -145 -13z"/>
<path d="M26975 14683 c-52 -11 -210 -16 -620 -22 -510 -8 -557 -10 -650 -31
-271 -59 -462 -188 -612 -412 -103 -155 -147 -304 -147 -498 0 -139 20 -222
68 -284 49 -65 139 -69 186 -9 31 39 25 88 -21 183 -73 152 -86 252 -49 394
73 285 355 506 688 539 34 4 62 3 62 -2 0 -20 -239 -946 -306 -1184 -47 -168
-134 -423 -166 -487 -41 -80 -72 -102 -205 -142 l-102 -32 -11 -44 c-6 -24 -9
-46 -6 -49 2 -2 80 4 172 13 107 11 253 18 399 18 215 0 285 -5 650 -44 121
-13 282 -13 347 1 130 27 251 117 305 227 66 135 15 282 -97 282 -94 0 -135
-86 -95 -200 30 -86 9 -147 -61 -176 -52 -22 -120 -17 -308 21 -235 47 -419
68 -531 61 -81 -5 -181 -23 -227 -41 -13 -5 -6 19 29 97 80 183 151 389 240
703 l29 100 240 0 c131 0 251 -4 266 -8 39 -10 51 -41 49 -119 l-2 -68 45 0
45 0 11 58 c27 139 63 301 76 346 8 27 14 51 14 53 0 2 -25 3 -55 3 -42 0 -55
-4 -55 -15 0 -8 -7 -33 -17 -56 -27 -68 -47 -72 -342 -77 -243 -4 -254 -3
-247 14 4 10 48 182 98 381 l90 363 207 0 c260 -1 461 -14 489 -31 36 -23 45
-60 35 -144 l-9 -75 48 0 c41 0 48 3 53 23 2 12 21 96 40 187 20 91 38 173 41
183 3 9 2 16 -3 16 -4 -1 -39 -8 -78 -16z"/>
<path d="M21982 14507 c-46 -14 -100 -78 -108 -126 -6 -38 -9 -40 -48 -45 -94
-13 -98 -14 -30 -12 l71 1 22 -47 c28 -61 70 -90 136 -96 156 -13 243 162 138
278 -49 55 -109 71 -181 47z"/>
<path d="M9580 14494 c-143 -23 -141 -22 -90 -46 64 -29 145 -29 193 1 20 12
42 31 47 42 10 17 7 19 -27 18 -21 -1 -76 -7 -123 -15z"/>
<path d="M6729 14416 c-9 -45 -30 -112 -47 -151 -30 -68 -30 -70 -11 -79 24
-11 86 6 122 34 14 11 33 40 43 65 18 43 20 44 54 39 53 -7 352 -34 375 -33
l20 0 -20 8 c-11 5 -90 14 -175 20 -251 19 -237 15 -244 61 -7 42 -53 104 -84
112 -15 4 -20 -8 -33 -76z"/>
<path d="M14182 14391 c-96 -24 -208 -80 -270 -136 -40 -36 -52 -54 -57 -88
-4 -23 -9 -49 -10 -59 -2 -9 -7 -38 -11 -64 l-7 -49 50 60 c107 129 241 204
407 229 87 13 82 9 99 94 l7 32 -68 -1 c-37 0 -100 -9 -140 -18z"/>
<path d="M8354 13791 c-36 -16 -73 -54 -98 -98 -6 -10 37 -13 201 -13 l208 1
-40 34 c-92 80 -199 110 -271 76z"/>
<path d="M15963 13671 l-33 -6 51 -75 c28 -41 71 -115 95 -165 41 -85 61 -144
133 -381 72 -235 146 -273 536 -273 227 -1 306 19 353 90 21 29 23 43 19 99
-7 106 -64 200 -271 450 -48 58 -111 139 -139 181 l-52 77 -59 6 c-74 8 -590
5 -633 -3z"/>
<path d="M18113 13673 l-42 -4 40 -62 c176 -270 241 -569 180 -831 l-9 -38 66
7 c86 8 465 63 551 78 l66 13 -2 84 c-6 327 -38 728 -59 750 -7 6 -730 9 -791
3z"/>
<path d="M20026 13673 l-48 -4 6 -32 c11 -56 54 -131 89 -154 58 -40 132 -24
207 43 46 41 115 132 107 140 -7 7 -299 13 -361 7z"/>
<path d="M14771 13219 c-149 -134 -398 -191 -587 -134 -26 8 -49 13 -51 11 -4
-4 93 -98 132 -128 27 -21 39 -23 135 -22 84 1 121 7 185 27 97 32 190 85 262
150 l53 49 -32 45 c-18 24 -35 46 -38 48 -3 1 -29 -19 -59 -46z"/>
<path d="M6601 13153 c-79 -39 -111 -157 -64 -234 61 -97 209 -105 278 -15 64
85 38 203 -57 252 -36 19 -115 17 -157 -3z"/>
<path d="M21954 13151 c-34 -21 -67 -63 -78 -98 -9 -27 -6 -27 -201 -8 -148
14 -263 19 -254 11 3 -3 85 -12 184 -21 284 -25 261 -19 269 -67 9 -53 65
-112 124 -127 117 -32 229 73 209 195 -7 43 -48 99 -87 119 -41 21 -128 19
-166 -4z"/>
<path d="M6893 13023 c15 -2 37 -2 50 0 12 2 0 4 -28 4 -27 0 -38 -2 -22 -4z"/>
<path d="M14950 12885 c-8 -7 -53 -37 -100 -64 -78 -47 -81 -50 -45 -44 91 14
144 44 171 96 12 21 12 27 1 27 -7 0 -19 -7 -27 -15z"/>
<path d="M10609 12743 c-7 -8 -9 -17 -3 -23 11 -11 244 -44 252 -35 17 17 -20
41 -79 51 -117 21 -158 23 -170 7z"/>
<path d="M21875 12487 c-35 -20 -77 -67 -88 -100 -2 -8 -65 0 -218 27 -276 48
-288 50 -268 37 9 -6 108 -26 220 -46 112 -19 216 -38 230 -41 22 -4 27 -12
32 -44 12 -95 88 -156 184 -148 89 8 143 62 151 152 4 46 0 62 -22 100 -46 80
-143 107 -221 63z"/>
<path d="M10815 11987 c-121 -47 -199 -173 -181 -290 30 -184 216 -291 381
-218 269 120 188 524 -104 520 -37 0 -80 -6 -96 -12z"/>
<path d="M17740 11991 c-123 -38 -210 -164 -197 -287 26 -248 339 -337 489
-139 110 146 48 362 -121 420 -47 16 -129 19 -171 6z"/>
<path d="M19215 11893 c-196 -508 -438 -944 -765 -1377 -61 -82 -109 -150
-107 -152 2 -2 23 3 47 11 23 8 51 15 60 15 30 0 76 46 164 164 287 383 558
886 691 1280 l34 99 -40 29 c-21 15 -41 28 -43 28 -2 0 -21 -44 -41 -97z"/>
<path d="M19505 11693 c-172 -427 -323 -713 -578 -1101 -66 -100 -118 -184
-116 -186 2 -2 27 -6 56 -10 46 -6 53 -4 63 14 l11 21 38 -21 c25 -14 50 -20
76 -18 l40 3 -53 38 c-28 21 -52 42 -52 47 0 4 28 50 63 101 35 52 85 129 111
172 27 42 51 77 54 77 3 0 92 -48 198 -106 183 -100 229 -117 229 -85 0 7 -88
67 -195 133 -107 65 -195 122 -195 126 0 4 30 63 66 132 37 69 80 151 95 182
l29 56 175 -77 c274 -121 288 -127 303 -112 18 18 -1 30 -240 148 l-211 104
32 72 c18 40 54 127 81 195 26 67 50 122 53 122 3 0 82 -26 176 -59 219 -75
236 -79 236 -53 0 17 -29 32 -177 90 -98 38 -186 72 -197 76 -15 5 -17 13 -12
41 6 30 4 35 -12 35 -11 0 -33 3 -49 6 l-30 6 -68 -169z"/>
<path d="M21165 11851 c8 -8 215 -66 436 -122 35 -9 37 -11 41 -62 5 -67 36
-113 92 -138 52 -23 90 -23 142 0 107 48 132 175 54 265 -40 45 -79 60 -141
54 -56 -6 -92 -28 -127 -79 -13 -19 -27 -33 -30 -32 -4 0 -99 26 -212 56 -248
67 -268 72 -255 58z"/>
<path d="M6810 11804 c-41 -35 -60 -74 -60 -124 0 -57 26 -107 70 -136 67 -44
143 -41 205 7 59 47 78 148 39 208 -37 56 -69 71 -151 71 -63 0 -75 -3 -103
-26z"/>
<path d="M7408 11813 c7 -3 16 -2 19 1 4 3 -2 6 -13 5 -11 0 -14 -3 -6 -6z"/>
<path d="M16940 11804 c0 -12 90 -133 558 -759 602 -803 621 -828 638 -814 12
9 11 16 -4 41 -19 33 -1055 1417 -1116 1491 -21 26 -47 47 -57 47 -11 0 -19
-3 -19 -6z"/>
<path d="M7338 11793 c7 -3 16 -2 19 1 4 3 -2 6 -13 5 -11 0 -14 -3 -6 -6z"/>
<path d="M7298 11783 c7 -3 16 -2 19 1 4 3 -2 6 -13 5 -11 0 -14 -3 -6 -6z"/>
<path d="M7215 11765 c-39 -14 -40 -14 -5 -8 41 7 82 22 60 22 -8 0 -33 -7
-55 -14z"/>
<path d="M7148 11743 c7 -3 16 -2 19 1 4 3 -2 6 -13 5 -11 0 -14 -3 -6 -6z"/>
<path d="M7108 11733 c7 -3 16 -2 19 1 4 3 -2 6 -13 5 -11 0 -14 -3 -6 -6z"/>
<path d="M21004 11254 c16 -9 119 -49 230 -88 196 -71 201 -73 198 -99 -8 -74
48 -166 115 -188 77 -25 172 12 208 81 8 16 15 52 15 80 0 62 -18 100 -65 136
-71 54 -170 42 -229 -28 l-35 -41 -220 82 c-212 78 -278 98 -217 65z"/>
<path d="M20780 10676 c36 -19 142 -69 236 -112 l170 -78 -4 -56 c-5 -68 12
-107 63 -146 70 -53 167 -42 229 26 66 73 54 182 -27 244 -69 53 -179 40 -230
-25 l-23 -30 -213 100 c-208 99 -329 145 -201 77z"/>
<path d="M20340 10222 c0 -10 73 -54 336 -202 l201 -114 -5 -61 c-6 -77 15
-126 68 -161 52 -34 100 -40 155 -20 104 40 143 161 81 253 -57 86 -192 99
-260 24 -11 -12 -23 -21 -28 -21 -4 0 -79 42 -166 94 -308 183 -382 224 -382
208z"/>
<path d="M19865 9820 c-6 -10 77 -71 370 -270 116 -79 229 -156 252 -171 l41
-29 -14 -46 c-50 -167 159 -292 281 -167 65 67 65 173 -1 239 -62 61 -150 67
-222 14 l-38 -27 -319 228 c-176 126 -325 231 -332 233 -7 3 -15 1 -18 -4z"/>
<path d="M19290 9531 c0 -14 71 -75 462 -395 l377 -308 -14 -29 c-8 -15 -15
-52 -15 -82 0 -69 38 -126 99 -151 53 -21 86 -20 137 3 129 59 131 240 3 306
-46 24 -120 19 -164 -10 l-37 -26 -56 48 c-32 26 -169 145 -307 264 -437 376
-485 414 -485 380z"/>
<path d="M18400 9433 c0 -4 236 -186 520 -400 227 -171 283 -220 510 -441
l255 -248 -17 -27 c-45 -68 -27 -174 39 -224 51 -39 144 -45 192 -11 49 33 72
69 78 121 7 59 -1 88 -34 128 -57 67 -144 83 -219 40 l-31 -18 -249 256 c-219
225 -272 286 -434 501 -199 263 -253 326 -270 315 -14 -9 2 -35 133 -212 l110
-148 -184 177 -184 178 -55 1 c-30 0 -79 4 -107 8 -29 4 -53 6 -53 4z"/>
<path d="M22569 6688 c-13 -18 -112 -123 -220 -233 -200 -204 -262 -283 -299
-383 -45 -119 -35 -261 25 -388 77 -160 250 -261 293 -171 20 42 -2 69 -80 96
-127 46 -201 158 -202 306 0 89 22 164 75 245 39 61 42 63 56 45 36 -50 337
-572 388 -674 73 -146 75 -161 36 -239 -27 -53 -29 -65 -19 -82 7 -11 15 -20
18 -20 3 0 39 41 80 91 86 105 189 204 323 312 175 141 221 198 234 292 15
114 -81 219 -150 165 -49 -38 -36 -68 57 -133 58 -40 28 -87 -121 -189 -125
-85 -203 -155 -248 -220 l-32 -48 -18 47 c-20 54 -120 257 -171 349 l-34 62
96 91 c53 50 105 91 115 91 11 0 29 -11 41 -25 25 -29 27 -29 51 -11 17 13 14
20 -47 112 -36 53 -67 102 -70 108 -2 7 -12 3 -25 -10 -20 -19 -21 -22 -6 -52
21 -41 17 -46 -97 -159 l-93 -92 -97 162 c-53 90 -100 170 -103 178 -9 23 237
259 269 259 15 0 36 -13 56 -36 31 -36 32 -36 51 -18 18 19 17 21 -37 104 -30
47 -59 89 -63 93 -5 5 -19 -6 -32 -25z"/>
<path d="M5853 6592 c-132 -47 -193 -139 -193 -296 -1 -143 -16 -270 -38 -313
-28 -53 -82 -100 -134 -114 -68 -18 -184 -7 -243 23 -74 38 -132 105 -140 162
-7 41 -3 55 30 120 42 81 42 114 0 142 -51 33 -125 -12 -146 -90 -32 -119 38
-263 177 -362 208 -148 483 -131 596 37 42 63 49 97 58 297 10 205 22 244 89
289 123 83 314 30 352 -97 16 -54 -14 -113 -91 -176 -62 -52 -69 -64 -45 -84
12 -10 29 -2 97 50 46 34 107 76 136 93 29 16 51 35 49 41 -13 32 -102 148
-147 190 -78 73 -145 99 -260 103 -73 3 -107 -1 -147 -15z"/>
<path d="M6342 6095 c-158 -35 -281 -167 -214 -228 10 -10 31 -17 46 -17 23 0
31 8 55 63 45 99 93 127 213 127 84 -1 150 -21 232 -70 l56 -34 -88 -22 c-100
-25 -151 -48 -237 -109 -98 -70 -361 -352 -473 -509 l-33 -46 28 0 c97 0 490
64 799 130 126 28 238 50 247 50 10 0 -26 -35 -80 -79 -54 -43 -210 -184 -347
-312 l-249 -234 94 -3 c261 -10 912 81 1104 153 145 54 256 129 291 196 22 43
18 95 -8 113 -49 34 -81 14 -127 -77 -53 -104 -160 -161 -421 -221 -58 -13
-134 -29 -170 -35 -73 -12 -420 -51 -455 -51 -18 0 2 24 98 118 206 198 385
348 545 455 l84 56 -37 7 c-87 16 -293 -12 -761 -105 -139 -28 -283 -53 -320
-57 l-69 -7 100 108 c131 141 220 222 290 264 77 47 204 97 298 118 42 10 77
20 77 24 0 8 -113 97 -188 148 -118 81 -261 113 -380 86z"/>
<path d="M21750 5865 c-94 -68 -151 -130 -187 -203 -26 -52 -28 -66 -28 -172
0 -131 16 -180 77 -242 69 -69 112 -81 308 -87 169 -6 178 -7 235 -36 47 -23
67 -41 90 -79 77 -127 21 -352 -105 -416 -57 -29 -103 -25 -185 15 -60 30 -76
34 -98 26 -84 -32 -42 -158 59 -177 52 -10 136 1 188 25 25 11 71 43 101 72
195 184 230 471 79 638 -64 72 -173 100 -379 101 -139 0 -179 11 -231 64 -43
43 -64 93 -64 156 0 148 125 259 229 205 16 -8 55 -44 88 -80 57 -64 59 -66
76 -47 16 18 14 22 -51 110 -38 50 -80 112 -93 137 -13 25 -26 45 -29 44 -3 0
-39 -25 -80 -54z"/>
<path d="M14444 2719 c-208 -32 -405 -158 -523 -335 -125 -187 -141 -363 -51
-551 36 -73 59 -102 220 -269 100 -102 193 -205 209 -228 93 -135 119 -252 86
-381 -24 -90 -63 -153 -147 -237 -63 -62 -96 -86 -170 -122 -193 -93 -386 -88
-502 14 -47 42 -67 81 -102 204 -30 109 -57 149 -109 166 -132 43 -231 -127
-161 -275 34 -71 85 -126 172 -184 267 -179 701 -136 1015 101 213 161 330
423 285 638 -32 154 -99 253 -342 506 -165 172 -187 200 -219 269 -67 146 -26
314 111 445 188 181 462 183 553 5 24 -47 26 -59 26 -195 0 -80 -4 -164 -8
-187 l-7 -43 50 0 c27 0 50 3 50 8 0 4 11 86 24 183 21 147 45 267 82 397 3
12 2 22 -3 22 -6 0 -70 11 -144 25 -153 29 -307 38 -395 24z"/>
</g>
</svg>
