<?xml version="1.0" standalone="no"?>
<!DOCTYPE svg PUBLIC "-//W3C//DTD SVG 20010904//EN"
 "http://www.w3.org/TR/2001/REC-SVG-20010904/DTD/svg10.dtd">
<svg version="1.0" xmlns="http://www.w3.org/2000/svg"
 width="400.000000pt" height="400.000000pt" viewBox="0 0 400.000000 400.000000"
 preserveAspectRatio="xMidYMid meet">
<metadata>
Created by potrace 1.11, written by Peter Selinger 2001-2013
</metadata>
<g transform="translate(0.000000,400.000000) scale(0.100000,-0.100000)"
fill="#000000" stroke="none">
<path d="M0 2000 l0 -2000 2000 0 2000 0 0 2000 0 2000 -2000 0 -2000 0 0
-2000z m1454 919 c80 -24 202 -105 258 -169 l41 -47 61 27 c246 111 512 116
711 12 259 -136 355 -466 213 -734 -59 -111 -195 -224 -326 -270 -63 -22 -157
-34 -195 -24 -33 8 -54 58 -39 91 11 24 21 28 136 54 127 30 261 135 314 248
24 52 27 70 27 163 0 95 -3 111 -29 167 -35 77 -123 164 -199 198 -149 65
-354 57 -529 -22 -32 -14 -58 -30 -58 -35 0 -5 11 -30 24 -56 54 -108 106
-306 131 -497 21 -160 21 -474 0 -623 -41 -293 -145 -492 -297 -566 -52 -26
-65 -28 -145 -24 -105 4 -147 22 -216 91 -57 56 -106 156 -132 267 -24 98 -32
385 -15 518 42 336 182 653 377 854 86 88 86 86 -4 160 -79 66 -184 108 -268
108 -56 0 -85 22 -85 65 0 25 7 39 28 55 24 19 35 21 89 16 35 -4 92 -16 127
-27z"/>
<path d="M1669 2453 c-224 -235 -360 -641 -346 -1033 6 -166 28 -267 78 -361
100 -187 264 -162 364 55 111 240 136 674 60 1053 -24 115 -64 244 -96 306
l-15 27 -45 -47z"/>
</g>
</svg>
